<svg width="63" height="63" fill="none" xmlns="http://www.w3.org/2000/svg"><circle cx="31.15" cy="31.016" r="29.016" fill="#fff" stroke="#CF311A" stroke-width="4"/><path d="M39.983 43.912h-20.72v-5.08l6.96-7.04c1.44-1.52 2.56-2.733 3.36-3.64.827-.906 1.4-1.68 1.72-2.32.32-.64.48-1.306.48-2 0-.853-.28-1.466-.84-1.84-.533-.373-1.173-.56-1.92-.56-.907 0-1.813.254-2.72.76-.907.507-1.947 1.267-3.12 2.28l-4.24-4.96a31.57 31.57 0 0 1 2.72-2.2c.987-.693 2.134-1.253 3.44-1.68 1.307-.453 2.907-.68 4.8-.68 1.947 0 3.627.347 5.04 1.04 1.413.667 2.507 1.587 3.28 2.76.8 1.174 1.2 2.507 1.2 4 0 1.227-.173 2.36-.52 3.4-.32 1.014-.826 2-1.52 2.96-.666.96-1.52 1.96-2.56 3a96.154 96.154 0 0 1-3.56 3.36l-2.08 1.88v.2h10.8v6.36Z" fill="#383E90"/></svg>