<svg width="63" height="63" fill="none" xmlns="http://www.w3.org/2000/svg"><circle cx="31.928" cy="31.461" r="29.016" fill="#fff" stroke="#CF311A" stroke-width="4"/><path d="M40.713 21.997c0 1.36-.293 2.533-.88 3.52a7.66 7.66 0 0 1-2.32 2.4 11.043 11.043 0 0 1-3.12 1.4v.12c2.294.267 4.054.96 5.28 2.08 1.254 1.093 1.88 2.653 1.88 4.68a7.672 7.672 0 0 1-1.28 4.28c-.826 1.307-2.12 2.347-3.88 3.12-1.733.773-3.986 1.16-6.76 1.16-1.84 0-3.413-.133-4.72-.4a26.096 26.096 0 0 1-3.8-1.16v-6.4c1.254.64 2.534 1.12 3.84 1.44 1.307.293 2.494.44 3.56.44 1.894 0 3.174-.267 3.84-.8.694-.533 1.04-1.253 1.04-2.16 0-.64-.173-1.187-.52-1.64-.32-.48-.92-.84-1.8-1.08-.853-.24-2.106-.36-3.76-.36h-1.76v-5.8h1.8c1.467 0 2.627-.12 3.48-.36.854-.267 1.467-.627 1.84-1.08a2.38 2.38 0 0 0 .56-1.56c0-.773-.293-1.333-.88-1.68-.586-.373-1.36-.56-2.32-.56a8.19 8.19 0 0 0-2.44.36c-.746.24-1.4.507-1.96.8-.56.267-.986.493-1.28.68l-3.2-5.16c.8-.533 1.654-1.013 2.56-1.44.934-.453 2-.8 3.2-1.04 1.227-.267 2.667-.4 4.32-.4 2.934 0 5.24.587 6.92 1.76 1.707 1.173 2.56 2.787 2.56 4.84Z" fill="#383E90"/></svg>