<svg width="63" height="63" fill="none" xmlns="http://www.w3.org/2000/svg"><circle cx="31.016" cy="31.993" r="29.016" fill="#fff" stroke="#CF311A" stroke-width="4"/><path d="M33.801 27.17c1.6 0 3.053.36 4.36 1.08 1.307.72 2.347 1.76 3.12 3.12.773 1.36 1.16 3.026 1.16 5 0 2.133-.427 3.946-1.28 5.44-.853 1.466-2.133 2.586-3.84 3.36-1.706.746-3.866 1.12-6.48 1.12-1.653 0-3.16-.134-4.52-.4-1.36-.267-2.573-.654-3.64-1.16v-6.32c1.014.453 2.227.866 3.64 1.24 1.413.373 2.707.56 3.88.56.96 0 1.76-.134 2.4-.4.667-.267 1.174-.667 1.52-1.2.347-.56.52-1.227.52-2 0-1.094-.4-1.947-1.2-2.56-.773-.614-1.947-.92-3.52-.92-.72 0-1.427.08-2.12.24-.666.133-1.266.28-1.8.44l-2.84-1.4 1.08-15.08h16.28v6.44h-9.72l-.36 3.76 1.28-.24c.454-.08 1.147-.12 2.08-.12Z" fill="#383E90"/></svg>