<svg width="63" height="63" fill="none" xmlns="http://www.w3.org/2000/svg"><circle cx="31.15" cy="31.993" r="29.016" fill="#fff" stroke="#CF311A" stroke-width="4"/><path d="M20.335 33.81c0-1.627.12-3.254.36-4.88a18.62 18.62 0 0 1 1.28-4.6 11.625 11.625 0 0 1 2.6-3.8c1.12-1.12 2.547-2 4.28-2.64 1.76-.64 3.907-.96 6.44-.96.56 0 1.24.04 2.04.12.827.053 1.507.12 2.04.2v6.04a15.555 15.555 0 0 0-1.8-.24c-.666-.08-1.48-.12-2.44-.12-1.44 0-2.653.173-3.64.52-.986.32-1.773.8-2.36 1.44-.586.613-1.026 1.373-1.32 2.28-.293.88-.466 1.88-.52 3h.24c.347-.64.76-1.2 1.24-1.68.48-.507 1.08-.907 1.8-1.2.72-.294 1.587-.44 2.6-.44 1.68 0 3.107.36 4.28 1.08 1.2.72 2.12 1.773 2.76 3.16.64 1.386.96 3.066.96 5.04 0 2.133-.413 3.96-1.24 5.48a8.12 8.12 0 0 1-3.48 3.48c-1.493.8-3.28 1.2-5.36 1.2-1.52 0-2.933-.24-4.24-.72a9.589 9.589 0 0 1-3.44-2.28c-.96-1.04-1.72-2.347-2.28-3.92-.533-1.574-.8-3.427-.8-5.56Zm10.6 6.36c.827 0 1.494-.307 2-.92.507-.64.76-1.627.76-2.96 0-1.094-.213-1.947-.64-2.56-.426-.614-1.106-.92-2.04-.92-.64 0-1.186.16-1.64.48-.426.293-.76.68-1 1.16-.24.453-.36.933-.36 1.44 0 .506.054 1.013.16 1.52.134.506.307.973.52 1.4.24.4.547.733.92 1 .374.24.814.36 1.32.36Z" fill="#383E90"/></svg>