<svg width="48" height="62" fill="none" xmlns="http://www.w3.org/2000/svg"><g clip-path="url(#a)" stroke="#1AA2CF" stroke-width="4" stroke-miterlimit="10" stroke-linecap="round"><path d="m17.53 24.448-4.224 4.89a.146.146 0 0 1-.216 0l-2.481-2.91"/><path d="M40.95 12.108h4.097c.84 0 1.52.682 1.52 1.522v45.085c0 .84-.68 1.522-1.52 1.522H3.241c-.84 0-1.52-.682-1.52-1.522V13.63c0-.84.68-1.522 1.52-1.522h4.097m13.915 15.568h16.433"/><path d="m17.53 34.877-4.224 4.89a.146.146 0 0 1-.216 0l-2.481-2.91m10.644 1.248h16.433M17.53 45.306l-4.224 4.89a.146.146 0 0 1-.216 0l-2.481-2.91m10.644 1.248h16.433M19.102 7.028V8.16a.171.171 0 0 1-.172.172h-4.14a3.14 3.14 0 0 0-3.137 3.139v3.202c0 .98.795 1.777 1.775 1.777h21.428c.98 0 1.775-.796 1.775-1.777v-3.202a3.14 3.14 0 0 0-3.137-3.14h-4.141a.171.171 0 0 1-.172-.171V7.028a5.044 5.044 0 0 0-5.039-5.043 5.044 5.044 0 0 0-5.039 5.043Zm5.039-.16v1.675"/></g><defs><clipPath id="a"><path fill="#fff" transform="translate(.448 .711)" d="M0 0h47.392v60.805H0z"/></clipPath></defs></svg>