<svg width="71" height="71" fill="none" xmlns="http://www.w3.org/2000/svg"><g clip-path="url(#a)" stroke="#1AA2CF" stroke-width="4" stroke-miterlimit="10" stroke-linecap="round"><path d="M40.033 9.05c11.22 1.801 20.078 10.664 21.884 21.884M40.033 19.33a16.407 16.407 0 0 1 11.6 11.6M35.803 1.27v25.75m33.893 8.14H43.948m17.966 4.226C60.11 50.606 51.249 59.468 40.029 61.27m11.605-21.884a16.407 16.407 0 0 1-11.601 11.6m-4.23 18.067V43.305M31.577 61.27c-11.22-1.802-20.083-10.664-21.885-21.884M31.577 50.99a16.407 16.407 0 0 1-11.601-11.6M1.914 35.16h25.748m-17.97-4.226c1.802-11.22 10.665-20.083 21.885-21.885M19.972 30.934a16.407 16.407 0 0 1 11.601-11.601"/></g><defs><clipPath id="a"><path fill="#fff" transform="translate(.93 .286)" d="M0 0h69.747v69.747H0z"/></clipPath></defs></svg>