<svg width="65" height="62" fill="none" xmlns="http://www.w3.org/2000/svg"><g clip-path="url(#a)" stroke="#1AA2CF" stroke-miterlimit="10" stroke-linecap="round"><path d="m34.192 43.995.265-3.496a.384.384 0 0 1 .192-.31l3.583-2.13c.547-.328.818-.988.655-1.614a19.005 19.005 0 0 0-.678-2.13 18.664 18.664 0 0 0-.92-2.043 1.416 1.416 0 0 0-1.545-.741l-4.074.878a.379.379 0 0 1-.344-.097l-2.517-2.4a.403.403 0 0 1-.118-.35l.61-4.174a1.443 1.443 0 0 0-.824-1.527 18.228 18.228 0 0 0-4.192-1.343 1.415 1.415 0 0 0-1.535.763l-1.88 3.783a.381.381 0 0 1-.287.213l-3.673.58a.39.39 0 0 1-.339-.115l-2.883-3.043a1.404 1.404 0 0 0-1.693-.27 18.873 18.873 0 0 0-3.605 2.56 1.46 1.46 0 0 0-.339 1.706l1.8 3.818a.402.402 0 0 1-.011.367l-1.687 3.06a.383.383 0 0 1-.305.201l-4.13.385a1.423 1.423 0 0 0-1.264 1.177 19.99 19.99 0 0 0-.276 2.221 18.507 18.507 0 0 0-.017 2.245 1.443 1.443 0 0 0 1.094 1.338l4.057.965a.39.39 0 0 1 .27.235l1.287 3.255a.422.422 0 0 1-.033.368l-2.291 3.519a1.46 1.46 0 0 0 .113 1.74 19.35 19.35 0 0 0 1.529 1.607c.547.511 1.117.988 1.71 1.418a1.394 1.394 0 0 0 1.709-.034l3.278-2.618a.395.395 0 0 1 .356-.07l3.295 1.023c.124.04.22.132.26.258l1.263 4.019a1.42 1.42 0 0 0 1.405.999 17.859 17.859 0 0 0 2.19-.207 17.62 17.62 0 0 0 2.155-.47 1.44 1.44 0 0 0 1.044-1.378l.045-4.243c0-.132.062-.253.169-.322l2.844-1.975a.37.37 0 0 1 .36-.04l3.877 1.51c.593.23 1.264.029 1.648-.488a19.322 19.322 0 0 0 2.195-3.87 1.47 1.47 0 0 0-.401-1.693l-3.222-2.687a.4.4 0 0 1-.141-.339l-.034.006Z" stroke-width="3"/><path d="M27.055 43.312c-1.095 3.53-4.79 5.488-8.26 4.375-3.47-1.114-5.395-4.875-4.3-8.405 1.094-3.531 4.79-5.49 8.26-4.375 3.47 1.114 5.394 4.874 4.3 8.405Z" stroke-width="4"/><path d="M58.815 13.641 57.67 11.07a.328.328 0 0 1 .017-.298l1.715-2.917a1.177 1.177 0 0 0-.152-1.395c-.4-.43-.83-.844-1.287-1.234a15.84 15.84 0 0 0-1.427-1.08 1.13 1.13 0 0 0-1.377.092l-2.545 2.228a.314.314 0 0 1-.282.069l-2.691-.7a.304.304 0 0 1-.215-.202l-1.162-3.186a1.14 1.14 0 0 0-1.168-.752c-.581.046-1.168.132-1.755.247-.586.12-1.162.275-1.72.46a1.16 1.16 0 0 0-.79 1.147l.118 3.41c0 .104-.04.202-.124.265l-2.37 1.86a.311.311 0 0 1-.282.052l-3.194-1.01a1.126 1.126 0 0 0-1.297.481 15.706 15.706 0 0 0-1.569 3.232c-.17.489 0 1.034.412 1.338l2.725 1.987c.085.063.13.16.13.264l-.023 2.825c0 .103-.05.2-.135.264l-2.77 1.906a1.185 1.185 0 0 0-.446 1.332c.18.562.4 1.125.654 1.676.254.551.537 1.085.841 1.59.271.442.79.655 1.281.511l3.227-.918a.316.316 0 0 1 .282.063l2.15 1.791a.318.318 0 0 1 .113.276l-.27 3.387a1.16 1.16 0 0 0 .744 1.183 15.138 15.138 0 0 0 3.442.855c.508.063.993-.218 1.196-.694l1.315-3.147a.316.316 0 0 1 .225-.19l2.714-.579a.306.306 0 0 1 .282.08l2.427 2.337c.372.356.93.42 1.37.155a15.5 15.5 0 0 0 1.468-1.01c.474-.373.925-.77 1.343-1.183.366-.362.451-.924.214-1.384L57.44 23.54a.3.3 0 0 1 0-.293l1.252-2.52a.31.31 0 0 1 .237-.172l3.312-.465c.508-.07.903-.477.976-.993a15.744 15.744 0 0 0 .074-3.606 1.157 1.157 0 0 0-.931-1.033l-3.301-.626a.297.297 0 0 1-.226-.184l-.017-.006Z" stroke-width="3"/><path d="M53.173 16.047c.536 2.727-1.202 5.385-3.882 5.93-2.68.546-5.292-1.222-5.828-3.95-.537-2.726 1.201-5.385 3.881-5.93 2.68-.545 5.293 1.223 5.829 3.95Z" stroke-width="3"/></g><defs><clipPath id="a"><path fill="#fff" transform="translate(.981 .546)" d="M0 0h63.488v60.805H0z"/></clipPath></defs></svg>