<svg width="65" height="63" fill="none" xmlns="http://www.w3.org/2000/svg"><g clip-path="url(#a)" stroke="#1AA2CF" stroke-width="4" stroke-miterlimit="10" stroke-linecap="round"><path d="M47.093 32.45c0 8.119-6.563 14.701-14.658 14.701-8.095 0-14.658-6.582-14.658-14.702 0-8.12 6.563-14.702 14.658-14.702 8.095 0 14.657 6.582 14.657 14.702Z"/><path d="m61.572 32.98-4.483-1.802a.782.782 0 0 1-.49-.677c-.201-2.56-.8-5.01-1.734-7.293a.799.799 0 0 1 .144-.838l3.255-3.6c.692-.769.813-1.907.265-2.785a30.025 30.025 0 0 0-2.12-2.994 31.082 31.082 0 0 0-2.466-2.734 2.31 2.31 0 0 0-2.76-.346l-4.321 2.444a.78.78 0 0 1-.835-.04A24.074 24.074 0 0 0 39.4 9.154a.784.784 0 0 1-.56-.636l-.777-4.907c-.161-1.022-.974-1.832-2-1.953a30.54 30.54 0 0 0-7.317 0c-1.02.121-1.832.925-1.999 1.942l-.806 4.941a.786.786 0 0 1-.554.63 24.088 24.088 0 0 0-6.994 3.444.77.77 0 0 1-.836.052l-4.344-2.37a2.307 2.307 0 0 0-2.76.4 30.908 30.908 0 0 0-2.402 2.774 32.578 32.578 0 0 0-2.069 3.045c-.53.884-.386 2.017.317 2.774l3.348 3.589a.792.792 0 0 1 .155.826 24.293 24.293 0 0 0-1.567 7.288.787.787 0 0 1-.478.688l-4.46 1.872c-.95.399-1.544 1.381-1.417 2.41a31.71 31.71 0 0 0 .651 3.612A32.04 32.04 0 0 0 3.609 43.1a2.314 2.314 0 0 0 2.351 1.485l4.748-.364a.79.79 0 0 1 .743.399 24.422 24.422 0 0 0 4.788 5.906.79.79 0 0 1 .236.81l-1.296 4.53c-.283.994.11 2.075.985 2.618a30.221 30.221 0 0 0 3.22 1.751c1.124.526 2.265.982 3.412 1.364a2.303 2.303 0 0 0 2.627-.913l2.639-3.867a.785.785 0 0 1 .772-.335 23.84 23.84 0 0 0 3.6.272c1.39 0 2.75-.121 4.074-.347a.79.79 0 0 1 .784.324l2.68 3.797c.593.843 1.676 1.213 2.65.867a32.229 32.229 0 0 0 3.376-1.422 30.24 30.24 0 0 0 3.192-1.82c.864-.561 1.233-1.642.939-2.63l-1.366-4.508a.8.8 0 0 1 .22-.809 24.356 24.356 0 0 0 4.684-6.033.775.775 0 0 1 .737-.41l4.701.288a2.313 2.313 0 0 0 2.334-1.53 31.036 31.036 0 0 0 1.584-7.167 2.317 2.317 0 0 0-1.457-2.375h.005Z"/><path d="M37.955 35.286V27.04c0-.29-.231-.52-.519-.52l-8.331-.035m7.922.965L26.719 37.789"/></g><defs><clipPath id="a"><path fill="#fff" transform="translate(.705 .288)" d="M0 0h63.488v62.593H0z"/></clipPath></defs></svg>