<svg width="52" height="59" fill="none" xmlns="http://www.w3.org/2000/svg"><g clip-path="url(#a)" stroke="#1AA2CF" stroke-width="3" stroke-miterlimit="10" stroke-linecap="round"><path d="m50.438 11.165-6.386 6.009a.252.252 0 0 1-.329 0l-3.746-3.58m10.461 12.964-6.386 6.008a.252.252 0 0 1-.329 0l-3.746-3.58m10.461 12.959-6.386 6.008a.252.252 0 0 1-.329 0l-3.746-3.58M25.068 26.64v9.326c0 1.485 1.473 2.684 3.296 2.684 1.824 0 3.297-1.2 3.297-2.684V22.425c0-.658-.415-1.275-1.102-1.619-1.966-.995-6.57-2.823-13.922-2.823-7.35 0-11.955 1.828-13.922 2.823-.686.35-1.1.961-1.1 1.619v13.541c0 1.485 1.472 2.684 3.296 2.684 1.823 0 3.296-1.2 3.296-2.684V26.64m8.43 30.925V40.77m6.629-33.54c0 3.615-2.925 6.456-6.536 6.456-3.61 0-6.535-2.84-6.535-6.456 0-3.615 2.931-5.705 6.542-5.705 3.611 0 6.536 2.084 6.536 5.705h-.007ZM8.207 41.893v14.42c0 .745.736 1.345 1.652 1.345h13.557c.915 0 1.652-.6 1.652-1.345v-14.42"/></g><defs><clipPath id="a"><path fill="#fff" transform="translate(.542 .651)" d="M0 0h50.969v57.88H0z"/></clipPath></defs></svg>