<svg width="104" height="105" fill="none" xmlns="http://www.w3.org/2000/svg"><circle cx="52" cy="52.531" r="52" fill="#FAD563"/><path d="m31.424 56.139.448 2.94c-3.528 1.036-7.28 2.128-10.164 2.968l-.868-3.136c1.148-.252 2.52-.616 4.032-1.008v-5.628h-3.108v-3.052h3.108v-4.872h-3.36v-3.08h9.8v3.08h-3.22v4.872h2.912v3.052h-2.912v4.788c1.092-.308 2.24-.616 3.332-.924Zm4.088-4.032v1.736h7.308v-1.736h-7.308Zm0-4.256v1.736h7.308v-1.736h-7.308Zm0-4.256v1.736h7.308v-1.736h-7.308Zm7.644 19.376h1.148c.476 0 .616-.448.672-3.248.644.504 1.932 1.036 2.772 1.232-.28 3.836-1.008 4.872-3.08 4.872h-2.1c-2.576 0-3.136-.952-3.136-3.78v-5.488h-1.708c-.504 4.564-1.792 7.812-7.756 9.576-.336-.812-1.176-2.1-1.848-2.744 5.068-1.26 5.964-3.556 6.328-6.832h-2.044v-15.68h13.664v15.68h-3.444v5.488c0 .812.056.924.532.924Zm37.8-17.78-2.716 1.596c-.532-1.316-1.848-3.388-2.912-4.984l2.492-1.372c1.12 1.456 2.52 3.444 3.136 4.76Zm.448 5.684H74.46c1.344 5.236 3.864 9.828 7.728 12.208-.784.616-1.876 1.876-2.408 2.8-3.136-2.268-5.292-5.796-6.832-10.024-.98 3.556-2.912 7.084-6.356 10.08-.56-.588-1.428-1.288-2.268-1.848v1.82H61.02v-9.044c-1.288 1.148-2.576 2.296-3.752 3.248l-1.68-2.856c1.344-.98 3.416-2.604 5.432-4.34v-3.976l-2.24 1.372c-.532-1.428-1.904-3.752-3.024-5.432l2.604-1.512a42.52 42.52 0 0 1 2.66 4.088v-7.672h3.304v23.66c4.312-3.892 5.74-8.484 6.188-12.572h-5.488v-3.304h5.684v-7.7h3.304v7.7h7.392v3.304Z" fill="#383E90"/></svg>