<svg width="106" height="107" fill="none" xmlns="http://www.w3.org/2000/svg"><circle cx="53" cy="53.531" r="53" fill="#FAD563"/><path d="M30.908 39.782v2.52h-7.98v-2.52h7.98Zm.812 3.752v2.632H21.584v-2.632H31.72Zm-.728 3.892v2.548h-8.148v-2.548h8.148Zm-8.148 6.328v-2.492h8.148v2.492h-8.148Zm5.404 7.224v-3.22h-2.744v3.22h2.744Zm7.588-14.028v1.792h2.352V46.95h-2.352Zm0-4.368v1.82h2.352v-1.82h-2.352Zm7.7 1.82v-1.82h-2.464v1.82h2.464Zm0 4.34V46.95h-2.464v1.792h2.464Zm3.696 7.196h-4.62c1.4 2.128 3.528 4.228 5.488 5.432-.728.56-1.736 1.736-2.24 2.52-1.596-1.232-3.248-3.164-4.592-5.236v6.384H38.02v-6.104c-1.372 2.072-3.08 3.892-4.9 5.068-.476-.728-1.4-1.82-2.1-2.436v2.016h-5.516v1.092H22.76v-9.548h8.26v6.216c2.156-1.176 4.256-3.22 5.628-5.404h-4.592v-2.94h5.964v-1.624h-5.152V39.978h13.748v11.396h-5.348v1.624h5.964v2.94Zm30.492-8.484v-1.288h-5.096v1.288h5.096Zm0 3.444V49.61h-5.096v1.288h5.096Zm0 3.472v-1.344h-5.096v1.344h5.096Zm-8.036-10.444h3.584c.168-.476.308-1.008.476-1.512H68.82V40.09h12.824v2.324h-4.9l-.672 1.512h4.76v12.712H69.688V43.926Zm6.188 13.944 2.296-1.204c1.484.98 3.22 2.464 4.088 3.528l-2.38 1.4c-.868-1.092-2.604-2.744-4.004-3.724Zm-3.92-1.036 2.716.868c-1.204 1.568-3.164 3.164-4.9 4.088-.476-.532-1.54-1.484-2.128-1.932 1.652-.756 3.332-1.848 4.312-3.024Zm-7.336-13.3v-1.316h-4.004v1.316h4.004Zm0 3.472v-1.372h-4.004v1.372h4.004Zm3.08-7v9.24H57.648v-9.24H67.7Zm-3.332 17.948v3.304c1.68.504 3.724.616 6.216.616 1.904 0 9.548 0 11.844-.112-.448.644-.896 1.932-1.064 2.744h-10.78c-5.264 0-8.736-.532-10.976-3.584-.392 1.68-1.008 3.164-1.96 4.312-.42-.7-1.26-1.764-1.932-2.268 1.568-1.932 1.848-5.236 1.932-8.596h2.66a54.214 54.214 0 0 1-.168 3.052c.392.896.868 1.624 1.428 2.212V53.25h-5.18v-2.408h12.544v2.408h-4.564v2.296H68.4v2.408h-4.032Z" fill="#383E90"/></svg>