<svg width="95" height="95" fill="none" xmlns="http://www.w3.org/2000/svg"><circle cx="47.5" cy="47.5" r="47.5" fill="#fff"/><path d="M58.2 38.05c0 1.7-.367 3.167-1.1 4.4a9.57 9.57 0 0 1-2.9 3c-1.2.767-2.5 1.35-3.9 1.75v.15c2.867.367 5.067 1.233 6.6 2.6 1.567 1.367 2.35 3.317 2.35 5.85a9.59 9.59 0 0 1-1.6 5.35c-1.033 1.633-2.65 2.933-4.85 3.9-2.2.967-5.017 1.45-8.45 1.45-2.3 0-4.267-.167-5.9-.5a32.63 32.63 0 0 1-4.75-1.45v-8c1.533.8 3.117 1.4 4.75 1.8 1.633.367 3.133.55 4.5.55 2.367 0 3.967-.333 4.8-1 .867-.667 1.3-1.567 1.3-2.7 0-.8-.217-1.483-.65-2.05-.4-.567-1.15-1-2.25-1.3-1.1-.333-2.667-.5-4.7-.5h-2.2V44.1h2.25c2.733 0 4.633-.35 5.7-1.05 1.1-.7 1.65-1.6 1.65-2.7 0-.967-.367-1.667-1.1-2.1-.733-.467-1.7-.7-2.9-.7-1.1 0-2.117.15-3.05.45-.933.3-1.75.633-2.45 1-.7.333-1.233.617-1.6.85l-4-6.45c1.467-1 3.15-1.85 5.05-2.55 1.933-.7 4.45-1.05 7.55-1.05 3.667 0 6.55.733 8.65 2.2 2.133 1.467 3.2 3.483 3.2 6.05Z" fill="#1D4A9F"/></svg>