<?xml version="1.0" encoding="UTF-8"?>
<svg id="_レイヤー_1" data-name="レイヤー_1" xmlns="http://www.w3.org/2000/svg" version="1.1" viewBox="0 0 95 95">
  <!-- Generator: Adobe Illustrator 29.5.1, SVG Export Plug-In . SVG Version: 2.1.0 Build 141)  -->
  <defs>
    <style>
      .st0 {
        font-family: HiraKakuStd-W8-83pv-RKSJ-H, 'Hiragino Kaku Gothic Std';
        font-size: 42.8px;
      }

      .st0, .st1 {
        fill: #1d4a9f;
      }

      .st2 {
        fill: #fff;
      }

      .st1 {
        display: none;
      }
    </style>
  </defs>
  <circle class="st2" cx="47.5" cy="47.5" r="47.5"/>
  <path class="st1" d="M58.2,38.05c0,1.7-.37,3.17-1.1,4.4-.73,1.2-1.72,2.23-2.9,3-1.2.77-2.5,1.35-3.9,1.75v.15c2.87.37,5.07,1.23,6.6,2.6,1.57,1.37,2.35,3.32,2.35,5.85,0,1.9-.55,3.76-1.6,5.35-1.03,1.63-2.65,2.93-4.85,3.9-2.2.97-5.02,1.45-8.45,1.45-2.3,0-4.27-.17-5.9-.5-1.62-.36-3.21-.85-4.75-1.45v-8c1.53.8,3.12,1.4,4.75,1.8,1.63.37,3.13.55,4.5.55,2.37,0,3.97-.33,4.8-1,.87-.67,1.3-1.57,1.3-2.7,0-.8-.22-1.48-.65-2.05-.4-.57-1.15-1-2.25-1.3-1.1-.33-2.67-.5-4.7-.5h-2.2v-7.25h2.25c2.73,0,4.63-.35,5.7-1.05,1.1-.7,1.65-1.6,1.65-2.7,0-.97-.37-1.67-1.1-2.1-.73-.47-1.7-.7-2.9-.7-1.1,0-2.12.15-3.05.45s-1.75.63-2.45,1c-.7.33-1.23.62-1.6.85l-4-6.45c1.47-1,3.15-1.85,5.05-2.55,1.93-.7,4.45-1.05,7.55-1.05,3.67,0,6.55.73,8.65,2.2,2.13,1.47,3.2,3.48,3.2,6.05Z"/>
  <text class="st0" transform="translate(28.66 63.87)"><tspan x="0" y="0">4</tspan></text>
</svg>