<svg width="95" height="95" fill="none" xmlns="http://www.w3.org/2000/svg"><circle cx="47.5" cy="47.5" r="47.5" fill="#fff"/><path d="M59.4 66H33.5v-6.35l8.7-8.8c1.8-1.9 3.2-3.417 4.2-4.55s1.7-2.1 2.1-2.9c.433-.8.65-1.633.65-2.5 0-1.067-.35-1.833-1.05-2.3-.667-.467-1.467-.7-2.4-.7-1.133 0-2.267.317-3.4.95s-2.433 1.583-3.9 2.85l-5.3-6.2a46.545 46.545 0 0 1 3.4-2.7c1.2-.9 2.617-1.617 4.25-2.15 1.667-.567 3.683-.85 6.05-.85 2.4 0 4.483.433 6.25 1.3 1.8.833 3.183 1.983 4.15 3.45 1 1.467 1.5 3.133 1.5 5 0 2.067-.383 3.917-1.15 5.55-.733 1.6-1.867 3.217-3.4 4.85-1.5 1.633-3.383 3.467-5.65 5.5l-2.6 2.35v.25h13.5V66Z" fill="#1D4A9F"/></svg>