<svg width="80" height="70" fill="none" xmlns="http://www.w3.org/2000/svg"><g clip-path="url(#a)"><path d="M66.225 21.637h-53.21a2.73 2.73 0 0 0-2.726 2.735v30.292a2.73 2.73 0 0 0 2.727 2.735h53.209a2.73 2.73 0 0 0 2.726-2.735V24.372a2.73 2.73 0 0 0-2.726-2.735Z" fill="#fff"/><path d="M66.221 59.028H13.02c-2.401 0-4.354-1.959-4.354-4.367V24.372c0-2.409 1.953-4.367 4.354-4.367h53.206c2.4 0 4.354 1.958 4.354 4.367v30.289c0 2.408-1.953 4.367-4.354 4.367h-.004ZM13.02 23.269c-.607 0-1.1.497-1.1 1.103v30.289c0 .609.496 1.102 1.1 1.102h53.206c.607 0 1.099-.497 1.099-1.102V24.372c0-.61-.495-1.103-1.1-1.103H13.02Z" fill="#3E3A39"/><path d="M63.419 26.93h-47.3v26.218h47.3V26.929Z" fill="#20D6F6"/><path d="M63.419 54.78h-47.3a1.628 1.628 0 0 1-1.628-1.632V26.929c0-.903.727-1.632 1.627-1.632h47.3c.9 0 1.628.729 1.628 1.632v26.219c0 .903-.727 1.632-1.628 1.632Zm-45.673-3.264H61.79V28.562H17.746v22.954Z" fill="#3E3A39"/><path d="M76.119 67.944H3.234c-1.266 0-1.906-1.534-1.016-2.438l6.679-6.797a1.432 1.432 0 0 1 1.016-.428h59.526c.384 0 .749.152 1.017.428l6.679 6.797c.89.907.25 2.438-1.016 2.438Z" fill="#fff"/><path d="M76.119 69.576H3.234a3.043 3.043 0 0 1-2.817-1.882 3.06 3.06 0 0 1 .643-3.334l6.68-6.797a3.073 3.073 0 0 1 2.176-.915h59.527c.814 0 1.606.334 2.177.914l6.68 6.798a3.06 3.06 0 0 1 .643 3.334 3.05 3.05 0 0 1-2.817 1.882h-.007ZM3.71 66.312h71.934l-6.289-6.399H10l-6.29 6.399Z" fill="#3E3A39"/><path d="M51.145 67.944H28.211l1.898-4.832h19.137l1.899 4.832Z" fill="#fff"/><path d="M51.145 69.576H28.211a1.628 1.628 0 0 1-1.345-.714 1.64 1.64 0 0 1-.17-1.516l1.898-4.832a1.63 1.63 0 0 1 1.515-1.034h19.137c.67 0 1.27.41 1.516 1.034l1.898 4.831c.2.505.134 1.07-.17 1.517a1.628 1.628 0 0 1-1.345.714Zm-20.544-3.264h18.154l-.615-1.567H31.22l-.615 1.567H30.6Z" fill="#3E3A39"/><path d="M74.253 2.209H54.172a3.14 3.14 0 0 0-3.136 3.145V42.19a3.14 3.14 0 0 0 3.136 3.145h20.08a3.14 3.14 0 0 0 3.136-3.145V5.354a3.14 3.14 0 0 0-3.135-3.145Z" fill="#fff"/><path d="M74.253 46.967H54.168c-2.625 0-4.762-2.144-4.762-4.777V5.354c0-2.634 2.137-4.778 4.762-4.778h20.085c2.625 0 4.762 2.144 4.762 4.778v36.84c0 2.633-2.137 4.777-4.762 4.777v-.004ZM54.168 3.841c-.832 0-1.508.678-1.508 1.513v36.84c0 .834.676 1.512 1.508 1.512h20.085c.831 0 1.508-.678 1.508-1.513V5.353c0-.834-.677-1.512-1.508-1.512H54.168Z" fill="#3D3A39"/><path d="M69.24 2.873H59.189a.97.97 0 0 0-.97.972v.997a.97.97 0 0 0 .97.972H69.24a.97.97 0 0 0 .969-.972v-.997a.97.97 0 0 0-.97-.972Z" fill="#3E3A39"/></g><defs><clipPath id="a"><path fill="#fff" transform="translate(.178 .576)" d="M0 0h79v69H0z"/></clipPath></defs></svg>