<svg width="77" height="79" fill="none" xmlns="http://www.w3.org/2000/svg"><g clip-path="url(#a)"><path d="m26.618 30.602 1.605 5.453c1.522.496 2.053.67 3.576 1.163l4.497-3.47c1.84 1.34 1.7 1.236 3.536 2.575l-1.902 5.355 2.21 3.045 5.672-.156c.701 2.166.647 2 1.352 4.164l-4.682 3.212v3.765l4.682 3.212c-.701 2.165-.647 1.998-1.352 4.163l-5.673-.155-2.209 3.045 1.902 5.355c-1.84 1.34-1.7 1.234-3.536 2.574L31.8 70.433c-1.523.496-2.054.67-3.576 1.163l-1.605 5.452h-4.371l-1.606-5.452c-1.522-.496-2.053-.67-3.575-1.163l-4.498 3.47c-1.84-1.34-1.7-1.236-3.536-2.575l1.902-5.355-2.209-3.045-5.673.156c-.701-2.166-.647-2-1.352-4.164l4.682-3.212v-3.765L1.7 48.73c.702-2.165.647-1.998 1.352-4.164l5.673.156 2.209-3.045-1.902-5.355c1.84-1.34 1.7-1.234 3.536-2.574l4.498 3.468c1.522-.495 2.053-.67 3.575-1.162l1.606-5.453h4.37Z" fill="#20D6F6"/><path d="M26.618 78.576h-4.371a1.523 1.523 0 0 1-1.457-1.09l-1.378-4.685-2.053-.67-3.865 2.98a1.517 1.517 0 0 1-1.819.026L8.14 72.562a1.52 1.52 0 0 1-.538-1.737l1.634-4.602-1.27-1.75-4.873.135a1.528 1.528 0 0 1-1.486-1.05L.254 59.394c-.21-.64.029-1.343.586-1.723l4.024-2.76v-2.164L.84 49.987a1.516 1.516 0 0 1-.586-1.723L1.606 44.1c.21-.64.82-1.057 1.486-1.05l4.874.134 1.269-1.748L7.6 36.834a1.52 1.52 0 0 1 .538-1.738l3.536-2.574a1.517 1.517 0 0 1 1.819.025l3.865 2.98 2.053-.67 1.378-4.685a1.519 1.519 0 0 1 1.457-1.09h4.37c.673 0 1.266.445 1.458 1.09l1.377 4.685 2.054.67 3.865-2.98a1.517 1.517 0 0 1 1.818-.025l3.536 2.574a1.52 1.52 0 0 1 .539 1.738l-1.634 4.602 1.269 1.748 4.873-.134a1.535 1.535 0 0 1 1.486 1.05l1.352 4.164a1.517 1.517 0 0 1-.585 1.724L44 52.747v2.165l4.024 2.759c.556.38.795 1.082.585 1.723l-1.352 4.164a1.52 1.52 0 0 1-1.486 1.05l-4.873-.134-1.27 1.749 1.635 4.602a1.52 1.52 0 0 1-.539 1.737l-3.536 2.575a1.517 1.517 0 0 1-1.818-.026l-3.865-2.98-2.054.67-1.377 4.686a1.519 1.519 0 0 1-1.457 1.09Zm-3.236-3.037h2.1l1.284-4.363a1.52 1.52 0 0 1 .987-1.018l3.576-1.162a1.51 1.51 0 0 1 1.395.243l3.598 2.773 1.699-1.238-1.522-4.283a1.526 1.526 0 0 1 .202-1.405l2.21-3.049c.292-.405.77-.63 1.268-.626l4.538.127.65-2.003-3.745-2.57a1.523 1.523 0 0 1-.662-1.253v-3.766c0-.5.246-.97.662-1.252l3.745-2.571-.65-2.002-4.538.127a1.501 1.501 0 0 1-1.269-.627l-2.209-3.049a1.527 1.527 0 0 1-.202-1.4l1.522-4.284-1.7-1.238-3.597 2.773a1.51 1.51 0 0 1-1.395.243l-3.576-1.162a1.518 1.518 0 0 1-.987-1.018l-1.283-4.363h-2.101l-1.284 4.363c-.14.482-.51.862-.987 1.018l-3.575 1.162a1.51 1.51 0 0 1-1.396-.243l-3.597-2.773-1.7 1.238 1.523 4.283c.166.471.094.996-.203 1.401l-2.209 3.05c-.293.405-.77.644-1.269.626l-4.537-.127-.651 2.002 3.746 2.57c.412.283.661.754.661 1.253v3.766c0 .5-.246.97-.661 1.253l-3.746 2.57.65 2.003 4.538-.127c.495-.007.976.22 1.27.626l2.208 3.049c.293.405.369.93.203 1.405l-1.522 4.283 1.699 1.238 3.597-2.773a1.51 1.51 0 0 1 1.396-.243l3.575 1.162c.478.156.846.536.987 1.018l1.284 4.363Z" fill="#3E3A39"/><path d="M24.43 63.167c5.15 0 9.325-4.18 9.325-9.338 0-5.157-4.175-9.337-9.325-9.337-5.15 0-9.324 4.18-9.324 9.337s4.175 9.338 9.324 9.338Z" fill="#fff"/><path d="M24.43 64.684c-5.976 0-10.839-4.87-10.839-10.855s4.863-10.855 10.84-10.855c5.976 0 10.838 4.87 10.838 10.855S30.407 64.684 24.43 64.684Zm0-18.672c-4.302 0-7.805 3.505-7.805 7.817s3.5 7.817 7.805 7.817c4.306 0 7.806-3.505 7.806-7.817s-3.5-7.817-7.806-7.817Zm34.322-4.486h-5.84l-1.402-4.772-1.396-.453-3.937 3.035-4.725-3.436 1.663-4.685-.864-1.192-4.964.138-1.804-5.562 4.096-2.81v-1.47l-4.096-2.809 1.804-5.561 4.964.137.864-1.19-1.663-4.686 4.725-3.436 3.937 3.034 1.396-.452L52.913.584h5.839l1.402 4.772 1.396.452 3.937-3.034 4.726 3.436-1.663 4.685.864 1.191 4.964-.137 1.804 5.561-4.097 2.81v1.47l4.097 2.81-1.804 5.56-4.964-.137-.865 1.192 1.664 4.685-4.722 3.436-3.937-3.035-1.396.453-1.403 4.772h-.003Zm-3.569-3.041h1.298l1.215-4.128 4.44-1.444 3.405 2.625 1.049-.764-1.439-4.056 2.744-3.783 4.295.12.401-1.235-3.543-2.433v-4.675l3.543-2.433-.4-1.234-4.296.119-2.744-3.784 1.439-4.055-1.049-.764-3.405 2.625-4.44-1.444-1.215-4.128h-1.298l-1.215 4.128-4.44 1.444-3.405-2.625-1.048.764 1.438 4.055-2.744 3.784-4.295-.12-.401 1.235 3.543 2.433v4.675l-3.543 2.433.401 1.234 4.295-.12 2.744 3.784-1.438 4.056 1.048.764 3.406-2.625 4.44 1.444 1.214 4.128Z" fill="#3E3A39"/><path d="M55.83 28.67c4.202 0 7.607-3.412 7.607-7.619s-3.405-7.618-7.607-7.618c-4.2 0-7.606 3.411-7.606 7.618 0 4.208 3.405 7.618 7.606 7.618Z" fill="#fff"/><path d="M55.83 30.19c-5.032 0-9.125-4.099-9.125-9.139 0-5.04 4.093-9.138 9.125-9.138 5.033 0 9.126 4.098 9.126 9.138s-4.093 9.139-9.126 9.139Zm0-15.236c-3.358 0-6.088 2.734-6.088 6.097 0 3.364 2.73 6.098 6.088 6.098 3.36 0 6.089-2.734 6.089-6.098 0-3.363-2.73-6.097-6.089-6.097Z" fill="#3E3A39"/></g><defs><clipPath id="a"><path fill="#fff" transform="translate(.178 .576)" d="M0 0h76v78H0z"/></clipPath></defs></svg>