<svg width="63" height="61" fill="none" xmlns="http://www.w3.org/2000/svg"><g clip-path="url(#a)"><path d="M25.405 19.046v-6.948a.177.177 0 0 0-.178-.177H5.183a3.374 3.374 0 0 0-3.378 3.371v20.184h7.139a4.656 4.656 0 0 0 4.661 4.653 4.657 4.657 0 0 0 4.661-4.653h6.962c.097 0 .177-.08.177-.177v-6.948a4.656 4.656 0 0 1-4.662-4.652 4.656 4.656 0 0 1 4.662-4.653Z" fill="#fff"/><path d="M13.605 41.75a6.298 6.298 0 0 1-6.075-4.653H.178V15.289c0-2.754 2.246-4.996 5.005-4.996h20.044c.995 0 1.805.809 1.805 1.801v8.573h-1.627a3.035 3.035 0 0 0-3.034 3.028 3.033 3.033 0 0 0 3.034 3.028h1.627v8.573c0 .992-.81 1.8-1.805 1.8H19.68a6.302 6.302 0 0 1-6.075 4.654ZM3.433 33.847h7.138v1.625a3.035 3.035 0 0 0 6.068 0v-1.625h7.138v-4.09c-2.68-.717-4.66-3.161-4.66-6.063 0-2.902 1.977-5.346 4.66-6.064v-4.09H5.183a1.75 1.75 0 0 0-1.75 1.748v18.56Z" fill="#3E3A39"/><path d="m46.755 29.145 5.066 1.83a1.751 1.751 0 0 0 2.242-1.05l6.282-17.34a3.367 3.367 0 0 0-2.03-4.313L41.968 2.37a2.839 2.839 0 0 0-3.63 1.7l-1.465 4.04a4.661 4.661 0 0 0-5.967 2.793 4.648 4.648 0 0 0 2.799 5.956l-1.834 5.057a1.747 1.747 0 0 0 1.053 2.238l5.066 1.83a4.664 4.664 0 0 1 5.967-2.794 4.65 4.65 0 0 1 2.799 5.955Z" fill="#20D6F6"/><path d="M52.421 32.704a3.43 3.43 0 0 1-1.15-.202l-6.596-2.382.554-1.527a3.03 3.03 0 0 0-1.823-3.877 3.04 3.04 0 0 0-3.884 1.82l-.553 1.526-6.596-2.382a3.375 3.375 0 0 1-2.028-4.317l1.348-3.728a6.25 6.25 0 0 1-2.097-2.487 6.223 6.223 0 0 1-.22-4.797c.986-2.725 3.68-4.357 6.447-4.119l.984-2.71c.835-2.31 3.399-3.509 5.713-2.675L58.873 6.75A4.963 4.963 0 0 1 61.7 9.326a4.949 4.949 0 0 1 .173 3.819l-6.281 17.34a3.35 3.35 0 0 1-1.743 1.905 3.38 3.38 0 0 1-1.432.322l.003-.008ZM48.64 28.1l3.74 1.35s.046.018.093-.004.058-.058.065-.069l6.282-17.34a1.73 1.73 0 0 0-.062-1.335 1.726 1.726 0 0 0-.987-.899L41.42 3.901a1.215 1.215 0 0 0-1.547.725l-2.018 5.566-1.53-.552a3.036 3.036 0 0 0-3.883 1.819 3.026 3.026 0 0 0 1.819 3.877l1.53.552-2.387 6.583s-.018.047.003.094c.022.047.058.058.07.065l3.738 1.35c1.588-2.27 4.567-3.299 7.298-2.314a6.282 6.282 0 0 1 4.126 6.436V28.1Z" fill="#3E3A39"/><path d="M8.944 35.4H1.805v20.184a3.374 3.374 0 0 0 3.378 3.372h20.222V51.83a4.656 4.656 0 0 0 4.661-4.653 4.656 4.656 0 0 0-4.661-4.652V35.4h-7.139a4.657 4.657 0 0 1-4.661 4.653A4.656 4.656 0 0 1 8.944 35.4Z" fill="#fff"/><path d="M27.032 60.576H5.182c-2.758 0-5.004-2.241-5.004-4.995V33.773h10.393v1.624a3.035 3.035 0 0 0 6.068 0v-1.624h10.393v7.338c2.68.718 4.661 3.162 4.661 6.064s-1.978 5.345-4.661 6.063v7.338Zm-23.6-23.551v18.56a1.75 1.75 0 0 0 1.75 1.746h18.595v-7.125h1.628a3.035 3.035 0 0 0 3.034-3.028 3.033 3.033 0 0 0-3.034-3.028h-1.628v-7.125H19.68a6.302 6.302 0 0 1-6.075 4.652 6.298 6.298 0 0 1-6.075-4.652H3.433Z" fill="#3E3A39"/><path d="M25.405 51.827v7.125h20.222a3.374 3.374 0 0 0 3.377-3.371V35.397h-7.138a4.656 4.656 0 0 0-4.662-4.653 4.656 4.656 0 0 0-4.66 4.653h-7.14v7.125a4.657 4.657 0 0 1 4.662 4.653 4.657 4.657 0 0 1-4.661 4.652Z" fill="#fff"/><path d="M45.627 60.576H25.405c-.9 0-1.628-.725-1.628-1.624v-7.125c0-.899.727-1.624 1.628-1.624a3.033 3.033 0 0 0 3.034-3.029 3.035 3.035 0 0 0-3.034-3.028c-.9 0-1.628-.725-1.628-1.624v-7.125c0-.899.727-1.624 1.628-1.624h5.724a6.302 6.302 0 0 1 6.075-4.653 6.298 6.298 0 0 1 6.076 4.653h5.724c.9 0 1.627.725 1.627 1.624V55.58c0 2.754-2.245 4.995-5.004 4.995Zm-18.595-3.248h18.595a1.75 1.75 0 0 0 1.75-1.747V37.02h-5.511c-.9 0-1.628-.725-1.628-1.624a3.035 3.035 0 0 0-6.068 0c0 .899-.727 1.624-1.627 1.624h-5.511v4.09c2.68.718 4.661 3.162 4.661 6.064 0 2.898-1.978 5.345-4.661 6.063v4.09Z" fill="#3E3A39"/></g><defs><clipPath id="a"><path fill="#fff" transform="translate(.178 .576)" d="M0 0h62v60H0z"/></clipPath></defs></svg>