<svg width="92" height="71" fill="none" xmlns="http://www.w3.org/2000/svg"><g clip-path="url(#a)"><path d="M46.574 70.576c-19.187 0-34.8-15.703-34.8-35 0-19.296 15.608-35 34.8-35 19.192 0 34.8 15.704 34.8 35 0 19.297-15.613 35-34.8 35Zm0-65.366c-16.648 0-30.193 13.623-30.193 30.366 0 16.744 13.545 30.367 30.193 30.367 16.648 0 30.194-13.623 30.194-30.367 0-16.743-13.546-30.366-30.194-30.366Z" fill="#3E3A39"/><path d="M46.574 70.576c-10.402 0-18.552-15.373-18.552-35 0-19.626 8.15-35 18.552-35 10.403 0 18.552 15.374 18.552 35 0 19.627-8.15 35-18.552 35Zm0-65.366c-6.732 0-13.945 12.202-13.945 30.366 0 18.165 7.213 30.367 13.945 30.367S60.52 53.74 60.52 35.576 53.312 5.21 46.575 5.21Z" fill="#3E3A39"/><path d="M48.878 2.893H44.27V68.26h4.608V2.893Z" fill="#3E3A39"/><path d="M79.071 37.615H14.077a2.035 2.035 0 0 1-2.032-2.039c0-1.127.91-2.038 2.032-2.038h64.994a2.03 2.03 0 0 1 2.027 2.038 2.034 2.034 0 0 1-2.027 2.04ZM46.574 23.472c-6.747 0-13.11-.741-17.927-2.085-5.765-1.606-8.688-3.903-8.688-6.817 0-1.127.911-2.039 2.032-2.039 1.122 0 2.033.912 2.033 2.04.281 1.317 7.638 4.818 22.555 4.818 14.918 0 22.274-3.5 22.556-4.829 0-1.128.906-2.034 2.027-2.034s2.027.922 2.027 2.05c0 2.914-2.923 5.21-8.687 6.816-4.817 1.344-11.18 2.085-17.928 2.085v-.005ZM21.986 58.828c-1.12 0-2.027-.922-2.027-2.05 0-2.914 2.923-5.21 8.688-6.816 4.817-1.344 11.18-2.086 17.927-2.086s13.11.742 17.928 2.086c5.764 1.606 8.687 3.902 8.687 6.816a2.035 2.035 0 0 1-2.032 2.04 2.038 2.038 0 0 1-2.032-2.035c-.297-1.333-7.659-4.824-22.556-4.824-14.897 0-22.274 3.501-22.555 4.83a2.027 2.027 0 0 1-2.028 2.033v.005Z" fill="#3E3A39"/><path d="M23.599 48.479c-2.416 0-4.71-.093-6.86-.278C6.695 47.325 1.156 44.556.286 39.968c-.584-3.074 1.126-6.209 5.078-9.309a2.495 2.495 0 0 1 3.522.438 2.529 2.529 0 0 1-.435 3.542c-2.61 2.05-3.379 3.61-3.235 4.387.204 1.091 2.974 3.367 11.953 4.15 8.319.726 19.095-.062 30.342-2.22 11.247-2.157 21.552-5.405 29.026-9.159 8.063-4.046 9.803-7.187 9.599-8.279-.164-.854-1.633-2.105-5.283-3.068a2.527 2.527 0 0 1-1.792-3.084 2.514 2.514 0 0 1 3.066-1.802c5.314 1.405 8.324 3.764 8.939 7.007.87 4.587-3.267 9.21-12.287 13.742-7.873 3.954-18.644 7.362-30.326 9.602-8.826 1.688-17.406 2.569-24.854 2.569v-.005Z" fill="#20D6F6"/></g><defs><clipPath id="a"><path fill="#fff" transform="translate(.178 .576)" d="M0 0h91v70H0z"/></clipPath></defs></svg>