<svg width="74" height="62" fill="none" xmlns="http://www.w3.org/2000/svg"><g clip-path="url(#a)"><path d="M71.686 2.062H1.67v48.333h70.016V2.062Z" fill="#fff"/><path d="M71.686 51.88H1.67a1.486 1.486 0 0 1-1.492-1.485V2.062C.178 1.24.844.576 1.67.576h70.016c.826 0 1.492.664 1.492 1.486v48.333c0 .822-.666 1.485-1.492 1.485ZM3.161 48.91h67.034V3.547H3.16V48.91Z" fill="#3D3A39"/><path d="M16.437 21.177h-8.31v11.99h8.31v-11.99Zm10.932-4.957h-8.31v16.944h8.31V16.22ZM38.3 11.58h-8.31v21.584h8.31V11.58Zm19.206 29.447c4.969-2.049 7.329-7.721 5.27-12.669-2.058-4.947-7.755-7.297-12.724-5.247s-7.328 7.721-5.27 12.669c2.058 4.947 7.755 7.297 12.724 5.247Z" fill="#20D6F6"/><path d="M53.78 43.25c-6.191 0-11.23-5.017-11.23-11.182s5.039-11.181 11.23-11.181c6.192 0 11.23 5.016 11.23 11.181 0 6.165-5.038 11.182-11.23 11.182Zm0-19.393c-4.547 0-8.247 3.683-8.247 8.211 0 4.528 3.7 8.211 8.247 8.211 4.548 0 8.247-3.683 8.247-8.21 0-4.529-3.699-8.212-8.247-8.212Z" fill="#3D3A39"/><path d="M37.86 60.091c0-10.122 7.13-18.327 15.92-18.327 8.791 0 15.92 8.205 15.92 18.327H37.857h.004Z" fill="#20D6F6"/><path d="M69.704 61.576H37.86a1.486 1.486 0 0 1-1.492-1.485c0-10.924 7.813-19.812 17.412-19.812 9.6 0 17.413 8.888 17.413 19.812 0 .822-.667 1.485-1.492 1.485h.003Zm-30.296-2.97h28.748C67.51 50.012 61.311 43.25 53.78 43.25c-7.53 0-13.73 6.762-14.376 15.356h.004Z" fill="#3D3A39"/></g><defs><clipPath id="a"><path fill="#fff" transform="translate(.178 .576)" d="M0 0h73v61H0z"/></clipPath></defs></svg>