<svg width="63" height="61" fill="none" xmlns="http://www.w3.org/2000/svg"><g clip-path="url(#a)"><path d="M60.201 1.776 1.164 29.894l16.94 10.334 5.743 18.573L41.54 47.602l12.006 1.82L60.2 1.776Z" fill="#fff"/><path d="M18.105 42.782c-.341 0-.686-.098-.988-.303L.776 31.378a1.78 1.78 0 0 1-.772-1.611c.047-.64.435-1.2 1.007-1.473L60.487.17a1.753 1.753 0 0 1 2.219.623 1.79 1.79 0 0 1-.286 2.302l-43.132 39.23a1.751 1.751 0 0 1-1.183.457Zm-12.778-12.6 12.62 8.57L51.258 8.46 5.327 30.182Z" fill="#3E3A39"/><path d="M23.173 61h-.106a1.765 1.765 0 0 1-1.595-1.295l-5.068-18.221a1.781 1.781 0 0 1 1.223-2.191 1.765 1.765 0 0 1 2.175 1.232l3.688 13.263 4.465-10.887a1.759 1.759 0 0 1 2.305-.963 1.78 1.78 0 0 1 .956 2.32l-6.417 15.645A1.766 1.766 0 0 1 23.17 61h.004Z" fill="#3E3A39"/><path d="M52.303 51.199c-.145 0-.294-.02-.435-.056L29.15 45.301a1.776 1.776 0 0 1-1.23-1.137 1.792 1.792 0 0 1 .262-1.662L59.833.7a1.754 1.754 0 0 1 2.12-.545 1.778 1.778 0 0 1 1.016 1.954l-8.93 47.646c-.09.481-.376.904-.783 1.168a1.771 1.771 0 0 1-.949.277h-.004Zm-19.696-8.677 18.317 4.71 7.2-38.413-25.513 33.699-.004.004Z" fill="#3E3A39"/><path d="M23.847 61c-.596 0-1.18-.304-1.513-.857a1.785 1.785 0 0 1 .596-2.44l19.088-11.62a1.758 1.758 0 0 1 2.423.6c.505.84.235 1.93-.596 2.44l-19.089 11.62c-.286.174-.6.257-.909.257Z" fill="#3E3A39"/></g><defs><clipPath id="a"><path fill="#fff" d="M0 0h63v61H0z"/></clipPath></defs></svg>